<svg xmlns="http://www.w3.org/2000/svg" fill="none" width="30" height="22" viewBox="0 0 30 22"><path fill="#030E15" d="M28.88 15.5H1.13c-.7.06-1.07.44-1.13 1.13v.75a4.11 4.11 0 0 0 1.22 2.9 4.11 4.11 0 0 0 2.9 1.22h21.75a4.11 4.11 0 0 0 2.91-1.22 4.11 4.11 0 0 0 1.22-2.9v-.75c-.06-.7-.44-1.07-1.13-1.13Zm-3 3.75H4.13c-.47 0-.86-.14-1.18-.42a1.86 1.86 0 0 1-.65-1.08h25.4c-.1.44-.3.8-.65 1.08-.32.28-.7.42-1.18.42ZM5.25 3.12c.03-.21.16-.34.38-.37h18.75c.21.03.34.16.37.38V14H27V3.12a2.82 2.82 0 0 0-.75-1.87A2.82 2.82 0 0 0 24.37.5H5.63c-.75.03-1.37.28-1.87.75-.47.5-.72 1.13-.75 1.88V14h2.25V3.12Z"/></svg>