<svg xmlns="http://www.w3.org/2000/svg" fill="none" width="32" height="34" viewBox="0 0 32 34"><path fill="#030E15" d="M31.38 11 16.74 1.25c-.5-.33-1-.33-1.5 0L.62 11c-.41.25-.62.63-.62 1.13v9.74c0 .46.2.84.63 1.13l14.62 9.75c.5.33 1 .33 1.5 0L31.38 23c.41-.3.62-.67.62-1.13v-9.75c0-.5-.2-.87-.63-1.12Zm-14-6.06 10.75 7.18-4.82 3.2-5.93-3.95V4.95Zm-2.75 0v6.43l-5.94 3.94-4.81-3.19 10.75-7.18ZM2.74 14.69 6.19 17l-3.44 2.31V14.7Zm11.88 14.37L3.87 21.88l4.82-3.2 5.94 3.95v6.43ZM16 20.25 11.12 17 16 13.75 20.88 17 16 20.25Zm1.38 8.81v-6.43l5.93-3.94 4.82 3.18-10.75 7.2Zm11.87-9.75L25.81 17l3.44-2.31v4.62Z"/></svg>