<svg xmlns="http://www.w3.org/2000/svg" fill="none" viewBox="0 0 24 17"><path fill="#F7F7F7" d="M2.4 2.45A2.41 2.41 0 0 1 4.8.03h14.4c1.32 0 2.4 1.09 2.4 2.42v9.68h-2.4V2.45H4.8v9.68H2.4V2.45ZM0 14.06c0-.4.32-.72.72-.72h22.56c.4 0 .72.32.72.72a2.9 2.9 0 0 1-2.88 2.9H2.88A2.9 2.9 0 0 1 0 14.07Zm10.54-7.34L9.38 7.9l1.16 1.17a.9.9 0 0 1 0 1.28.9.9 0 0 1-1.27 0l-1.8-1.82a.9.9 0 0 1 0-1.28l1.8-1.81a.9.9 0 0 1 1.27 0c.35.35.35.93 0 1.28Zm4.2-1.28 1.8 1.81a.9.9 0 0 1 0 1.28l-1.8 1.82a.9.9 0 0 1-1.27 0 .91.91 0 0 1 0-1.28l1.16-1.17-1.16-1.18a.9.9 0 0 1 0-1.28.9.9 0 0 1 1.27 0Z"/></svg>