<svg xmlns="http://www.w3.org/2000/svg" fill="none" width="27" height="24" viewBox="0 0 27 24"><path fill="#030E15" d="M24 0H3a3.03 3.03 0 0 0-3 3v13.5a3.03 3.03 0 0 0 3 3h6.94l-.42 2.25h-2.4c-.68.06-1.06.44-1.12 1.13.06.68.44 1.06 1.13 1.12h12.75c.68-.06 1.06-.44 1.12-1.13-.06-.68-.44-1.06-1.13-1.12h-2.39l-.42-2.25H24a3.03 3.03 0 0 0 3-3V3a3.03 3.03 0 0 0-3-3Zm-8.81 21.75H11.8l.42-2.25h2.54l.42 2.25Zm9.56-5.25c-.03.47-.28.72-.75.75H3c-.47-.03-.72-.28-.75-.75v-2.25h22.5v2.25Zm0-4.5H2.25V3c.03-.47.28-.72.75-.75h21c.47.03.72.28.75.75v9Z"/></svg>