<svg width="50"
  height="50"
  viewBox="0 0 50 50"
  fill="none"
  xmlns="http://www.w3.org/2000/svg">
  <line x1="24.5"
    stroke="#000"
    y1="24.5"
    x2="24.5"
    y2="0"
    vector-effect="non-scaling-stroke"
    data-svg-origin="24.5 12.25"
    transform="matrix(1,0,0,1,0,0)">
  </line>
  <line x1="24.5"
    stroke="#000"
    y1="24.5"
    x2="35.5"
    y2="13.5"
    vector-effect="non-scaling-stroke"
    data-svg-origin="30 19"
    transform="matrix(1,0,0,1,0,0)">
  </line>
  <line x1="24.5"
    stroke="#000"
    y1="24.5"
    x2="50"
    y2="24.5"
    vector-effect="non-scaling-stroke"
    data-svg-origin="37.25 24.5"
    transform="matrix(1,0,0,1,0,0)">
  </line>
  <line x1="24.5"
    stroke="#000"
    y1="24.5"
    y2="24.5"
    vector-effect="non-scaling-stroke"
    data-svg-origin="12.25 24.5"
    transform="matrix(1,0,0,1,0,0)">
  </line>
  <line x1="24.5"
    stroke="#000"
    y1="24.5"
    x2="24.5"
    y2="50"
    vector-effect="non-scaling-stroke"
    data-svg-origin="24.5 37.25"
    transform="matrix(1,0,0,1,0,0)">
  </line>
  <line x1="24.5"
    stroke="#000"
    y1="24.5"
    x2="13.5"
    y2="13.5"
    vector-effect="non-scaling-stroke"
    data-svg-origin="19 19"
    transform="matrix(1,0,0,1,0,0)">
  </line>
  <line x1="24.5"
    stroke="#000"
    y1="24.5"
    x2="35.5"
    y2="35.5"
    vector-effect="non-scaling-stroke"
    data-svg-origin="30 30"
    transform="matrix(1,0,0,1,0,0)">
  </line>
  <line x1="24.5"
    stroke="#000"
    y1="24.5"
    x2="13.5"
    y2="35.5"
    vector-effect="non-scaling-stroke"
    data-svg-origin="19 30"
    transform="matrix(1,0,0,1,0,0)">
  </line>
  <rect x="16.5"
    y="16.5"
    width="16"
    height="16"
    vector-effect="non-scaling-stroke"
    data-svg-origin="24.5 24.5"
    transform="matrix(1,0,0,1,0,0)">
  </rect>
</svg>