<svg xmlns="http://www.w3.org/2000/svg" fill="none" viewBox="0 0 20 21"><path fill="#F7F7F7" d="M6.69 16.02c0 .08-.1.15-.21.15-.13.01-.23-.05-.23-.15 0-.08.1-.14.21-.14.12-.01.23.05.23.14Zm-1.25-.18c-.03.08.05.18.17.2.1.04.22 0 .25-.08.02-.08-.05-.17-.17-.21-.1-.03-.23.01-.25.1Zm1.78-.07c-.12.03-.2.1-.19.2.01.08.12.13.24.1.12-.02.2-.1.19-.18-.02-.08-.13-.13-.24-.12ZM9.87.32A9.67 9.67 0 0 0 0 10.16c0 4.47 2.81 8.3 6.83 9.65.52.09.7-.23.7-.5l-.01-2.47s-2.82.6-3.42-1.2c0 0-.45-1.17-1.12-1.47 0 0-.92-.64.07-.63 0 0 1 .08 1.55 1.04.89 1.56 2.37 1.11 2.94.85.1-.65.36-1.1.65-1.36-2.25-.25-4.53-.58-4.53-4.46 0-1.1.3-1.66.95-2.37a3.9 3.9 0 0 1 .1-2.74c.85-.26 2.79 1.09 2.79 1.09a9.47 9.47 0 0 1 5.06 0s1.94-1.36 2.79-1.09a3.8 3.8 0 0 1 .1 2.74c.65.71 1.04 1.27 1.04 2.37 0 3.9-2.37 4.2-4.63 4.46.37.32.69.92.69 1.87l-.01 3.37c0 .26.18.58.7.49A10.02 10.02 0 0 0 20 10.16C20 4.56 15.46.32 9.87.32ZM3.92 14.23c-.05.04-.04.13.03.2.06.07.15.1.2.05.06-.04.05-.13-.02-.21-.07-.06-.16-.1-.21-.04Zm-.44-.33c-.02.06.02.12.1.16.06.04.14.03.17-.03.03-.05-.01-.11-.1-.16-.07-.02-.14 0-.17.03Zm1.31 1.44c-.06.05-.04.17.05.25.1.1.21.1.26.04.06-.05.03-.17-.05-.25-.09-.1-.2-.1-.26-.04Zm-.46-.6c-.06.05-.06.15 0 .24.07.1.17.14.23.1.06-.06.06-.16 0-.25-.06-.1-.16-.14-.23-.08Z"/></svg>