<svg xmlns="http://www.w3.org/2000/svg" fill="none" viewBox="0 0 30 26"><path fill="#030E15" d="M19.45 2.45 12.7 24.2c-.28.63-.75.88-1.4.75-.66-.28-.9-.75-.75-1.4L17.3 1.8c.28-.63.75-.88 1.4-.75.66.28.9.75.75 1.4Zm4.18 4.13 6 5.62c.25.22.37.47.37.75 0 .35-.13.64-.38.9l-6 5.62c-.53.4-1.04.37-1.54-.1-.44-.53-.42-1.04.05-1.54l5.1-4.88-5.1-4.73c-.47-.53-.49-1.06-.05-1.6.5-.46 1.01-.48 1.55-.04ZM7.88 8.22l-5.11 4.73 5.1 4.88c.47.5.5 1.01.1 1.55-.53.46-1.06.5-1.6.09l-6-5.63a1.22 1.22 0 0 1-.37-.89c0-.28.13-.53.38-.75l6-5.62c.53-.44 1.06-.42 1.59.04.4.54.37 1.07-.1 1.6Z"/></svg>