<svg xmlns="http://www.w3.org/2000/svg" fill="none" viewBox="0 0 32 37"><g clip-path="url(#a)"><path fill="#000" d="M32 5.71a5.71 5.71 0 1 0-7.43 5.43v2.57a2.86 2.86 0 0 1-2.86 2.86H10.3c-1.04 0-2 .28-2.86.72v-6.15A5.68 5.68 0 0 0 5.7 0 5.7 5.7 0 0 0 4 11.14v14.3a5.7 5.7 0 0 0 1.71 11.13 5.71 5.71 0 0 0 1.72-11.14v-2.57A2.86 2.86 0 0 1 10.29 20H21.7A6.3 6.3 0 0 0 28 13.71v-2.57c2.31-.73 4-2.87 4-5.43ZM5.71 3.43a2.29 2.29 0 1 1 0 4.58 2.29 2.29 0 0 1 0-4.58Zm0 29.71a2.29 2.29 0 1 1 .01-4.57 2.29 2.29 0 0 1 0 4.57ZM26.3 8a2.29 2.29 0 1 1 0-4.58 2.29 2.29 0 0 1 0 4.58Z"/></g><defs><clipPath id="a"><path fill="#fff" d="M0 0h32v36.57H0z"/></clipPath></defs></svg>